# xmcd
#
# Track frame offsets:
#	150
#	21827
#	42090
#	56110
#	73417
#	88395
#	102262
#	119865
#	131702
#	151342
#	173345
#
# Disc length: 2439 seconds
# Revision: 0
# Processed by: cddbd v1.5.2PL0 Copyright (c) Steve Scherf et al.
# Submitted via: dBpowerAMP V12.0
#
DISCID=9e09850b
DTITLE=Various Artist - The Hits Collection
DYEAR=1998
DGENRE=Country
TTITLE0=Steve Wariner - Holes In The Floor Of Heaven
TTITLE1=Steve Wariner - Two Teardrops
TTITLE2=Steve Wariner with Garth Brooks - Katie Wants A Fast One
TTITLE3=Clint Black with Steve Wariner - Been There
TTITLE4=Steve Wariner - I'm Already Taken
TTITLE5=Steve Wariner - Every Little Whisper
TTITLE6=Steve Wariner - Faith In You
TTITLE7=Steve Wariner - Hands Of Time
TTITLE8=Steve Wariner - Turn In The Road
TTITLE9=Anita Cochran with Steve Wariner - What If I Said
TTITLE10=Steve Wariner with Garth Brooks - Burnin' The Roadhouse Down
EXTD=
EXTT0=
EXTT1=
EXTT2=
EXTT3=
EXTT4=
EXTT5=
EXTT6=
EXTT7=
EXTT8=
EXTT9=
EXTT10=
PLAYORDER=
